<svg xmlns="http://www.w3.org/2000/svg" viewBox="0 0 1080 1920" width="1080" height="1920"><rect width="1080" height="1920" fill="#FFFFFF"/><g stroke="#111317" stroke-opacity="0.16" stroke-width="3"><line x1="0" y1="830.2" x2="1080" y2="830.2"/><line x1="467.5" y1="0" x2="467.5" y2="1920"/></g><rect x="155.0" y="686.6" width="770.0" height="346.9" fill="#FFFFFF"/><g transform="translate(190.0 721.6) scale(1.54550) translate(226.46 120.00)"><path fill="#111317" d="M-184.16 1.38L-184.16 1.38Q-188.65 1.38-191.54-1.66Q-194.44-4.69-194.44-11.04L-194.44-11.04Q-194.44-15.11-192.51-19.77Q-190.58-24.43-187.51-29.46Q-184.44-34.50-180.99-39.92Q-177.54-45.33-174.50-50.99L-174.50-50.99Q-171.88-55.82-168.67-62.20Q-165.46-68.59-162.08-75.31Q-158.70-82.04-155.73-88.04L-155.73-88.04L-211.07-88.04L-211.07-77.69L-211.35-77.69L-211.35-103.50L-147.18-103.50Q-147.18-103.50-148.97-99.91Q-150.77-96.32-153.70-90.46Q-156.63-84.59-160.18-77.59Q-163.74-70.59-167.33-63.58Q-170.91-56.58-173.88-50.92L-173.88-50.92Q-177.19-44.71-179.40-40.99Q-181.61-37.26-182.75-34.67Q-183.89-32.09-183.89-29.26L-183.89-29.26Q-183.89-25.60-182.40-23.15Q-180.92-20.70-179.02-18.66Q-177.12-16.63-175.67-14.39Q-174.23-12.14-174.23-8.97L-174.23-8.97Q-174.23-4.76-176.71-1.69Q-179.19 1.38-184.16 1.38Z"/><path fill="#111317" d="M-123.79-77.28L-123.79-77.28Q-128.34-77.28-132.10-79.52Q-135.86-81.77-138.10-85.53Q-140.35-89.29-140.35-93.84L-140.35-93.84Q-140.35-98.39-138.10-102.15Q-135.86-105.92-132.10-108.16Q-128.34-110.40-123.79-110.40L-123.79-110.40Q-119.23-110.40-115.47-108.16Q-111.71-105.92-109.47-102.15Q-107.23-98.39-107.23-93.84L-107.23-93.84Q-107.23-89.29-109.47-85.53Q-111.71-81.77-115.47-79.52Q-119.23-77.28-123.79-77.28ZM-123.79-80.04L-123.79-80.04Q-117.85-80.04-113.92-84.01Q-109.99-87.98-109.99-93.84L-109.99-93.84Q-109.99-99.77-113.92-103.71Q-117.85-107.64-123.79-107.64L-123.79-107.64Q-129.65-107.64-133.62-103.71Q-137.59-99.77-137.59-93.84L-137.59-93.84Q-137.59-87.98-133.62-84.01Q-129.65-80.04-123.79-80.04Z"/><path fill="#111317" d="M-25.88 1.38L-25.88 1.38Q-33.40 1.38-37.88-2.04Q-42.37-5.45-45.06-12.56L-45.06-12.56L-65.41-64.79Q-67.14-69.14-68.00-73.00Q-68.86-76.87-68.86-80.45L-68.86-80.45Q-68.86-87.35-64.79-92.87Q-60.72-98.39-53.54-101.64Q-46.37-104.88-37.05-104.88L-37.05-104.88Q-32.57-104.88-28.46-103.74Q-24.36-102.60-21.15-100.43Q-17.94-98.26-16.08-95.05Q-14.21-91.84-14.21-87.70L-14.21-87.70Q-14.21-82.46-17.22-78.38Q-20.22-74.31-25.22-71.10Q-30.22-67.90-36.26-65.27Q-42.30-62.65-48.37-60.24L-48.37-60.24L-48.44-60.44Q-41.95-63.27-37.19-67.65Q-32.43-72.04-29.77-77.04Q-27.12-82.04-27.12-86.66L-27.12-86.66Q-27.12-90.94-27.81-95.05Q-28.50-99.15-30.60-101.88Q-32.71-104.60-37.05-104.60L-37.05-104.60Q-42.85-104.60-46.71-101.64Q-50.58-98.67-52.51-94.29Q-54.44-89.91-54.44-85.56L-54.44-85.56Q-54.44-81.97-53.16-77.04Q-51.89-72.11-49.06-64.79L-49.06-64.79L-27.67-9.04Q-26.91-7.04-25.88-5.07Q-24.84-3.11-23.15-1.79Q-21.46-0.48-18.70-0.48L-18.70-0.48Q-14.97-0.48-11.07-3.24Q-7.18-6.00-5.66-9.87L-5.66-9.87L-5.31-9.73Q-7.25-5.18-12.45-1.90Q-17.66 1.38-25.88 1.38ZM-68.72 1.38L-68.72 1.38Q-78.59 1.38-85.35-1.52Q-92.12-4.42-95.56-9.69Q-99.02-14.97-99.02-22.08L-99.02-22.08Q-99.02-29.95-95.88-35.05Q-92.74-40.16-87.35-43.54Q-81.97-46.92-75.14-49.54Q-68.31-52.16-60.86-55.13L-60.86-55.13L-60.79-54.99Q-67.48-51.82-72.69-47.16Q-77.90-42.50-80.87-36.57Q-83.84-30.64-83.84-23.39L-83.84-23.39Q-83.84-20.08-83.04-16.01Q-82.25-11.94-80.32-8.18Q-78.38-4.42-74.90-2.00Q-71.42 0.41-66.03 0.41L-66.03 0.41Q-55.55 0.41-45.16-3.04Q-34.78-6.49-25.50-12.18Q-16.22-17.87-9.04-24.70Q-1.86-31.53 2.28-38.47Q6.42-45.40 6.42-51.20L6.42-51.20L6.56-51.20Q6.56-49.47 5.17-48.20Q3.80-46.92 1.62-46.23Q-0.55-45.54-2.97-45.54L-2.97-45.54Q-5.73-45.54-7.83-46.68Q-9.94-47.82-11.14-49.75Q-12.35-51.68-12.35-54.10L-12.35-54.10Q-12.35-56.24-11.28-57.99Q-10.21-59.75-8.28-60.86Q-6.35-61.96-3.80-61.96L-3.80-61.96Q-0.48-61.96 1.86-60.58Q4.21-59.20 5.45-56.79Q6.69-54.37 6.69-51.20L6.69-51.20Q6.69-45.40 2.55-38.40Q-1.59-31.40-8.90-24.39Q-16.22-17.39-25.81-11.56Q-35.40-5.73-46.37-2.17Q-57.34 1.38-68.72 1.38Z"/><path fill="#111317" d="M46.92 1.38L46.92 1.38Q29.88 1.38 21.70-6.21Q13.52-13.80 13.52-26.22L13.52-26.22Q13.52-38.09 20.94-45.30Q28.36-52.51 43.88-53.20L43.88-53.20Q30.36-53.89 23.32-60.17Q16.28-66.45 16.28-77.28L16.28-77.28Q16.28-84.87 19.77-91.15Q23.25-97.43 30.08-101.15Q36.92-104.88 46.92-104.88L46.92-104.88Q56.93-104.88 63.79-101.15Q70.66-97.43 74.11-91.15Q77.56-84.87 77.56-77.28L77.56-77.28Q77.56-66.45 70.55-60.17Q63.55-53.89 49.96-53.20L49.96-53.20Q65.48-52.51 72.90-45.30Q80.32-38.09 80.32-26.22L80.32-26.22Q80.32-13.80 72.17-6.21Q64.03 1.38 46.92 1.38ZM46.92 1.10L46.92 1.10Q53.27 1.10 57.06-2.97Q60.86-7.04 62.51-13.28Q64.17-19.53 64.17-26.22L64.17-26.22Q64.17-32.91 62.51-39.02Q60.86-45.13 57.06-49.06Q53.27-52.99 46.92-52.99L46.92-52.99Q40.57-52.99 36.81-49.06Q33.05-45.13 31.36-39.02Q29.67-32.91 29.67-26.22L29.67-26.22Q29.67-19.53 31.36-13.28Q33.05-7.04 36.81-2.97Q40.57 1.10 46.92 1.10ZM46.92-53.41L46.92-53.41Q52.51-53.41 55.65-56.75Q58.79-60.10 60.10-65.55Q61.41-71.00 61.41-77.28L61.41-77.28Q61.41-81.90 60.72-86.70Q60.03-91.49 58.37-95.57Q56.72-99.64 53.92-102.12Q51.13-104.60 46.92-104.60L46.92-104.60Q42.71-104.60 39.92-102.12Q37.12-99.64 35.47-95.57Q33.81-91.49 33.12-86.70Q32.43-81.90 32.43-77.28L32.43-77.28Q32.43-71.00 33.74-65.55Q35.05-60.10 38.19-56.75Q41.33-53.41 46.92-53.41ZM129.31 1.38L129.31 1.38Q120.75 1.38 113.75-2.69Q106.74-6.76 101.74-14.08Q96.74-21.39 94.01-31.02Q91.29-40.64 91.29-51.75L91.29-51.75Q91.29-62.86 94.19-72.48Q97.08-82.11 102.26-89.42Q107.43-96.74 114.33-100.81Q121.23-104.88 129.31-104.88L129.31-104.88Q137.38-104.88 144.28-100.81Q151.18-96.74 156.39-89.42Q161.60-82.11 164.46-72.48Q167.33-62.86 167.33-51.75L167.33-51.75Q167.33-40.64 164.63-31.02Q161.94-21.39 156.91-14.08Q151.87-6.76 144.87-2.69Q137.86 1.38 129.31 1.38ZM129.31 1.10L129.31 1.10Q135.86 1.10 139.76-3.42Q143.66-7.94 145.73-15.53Q147.80-23.12 148.49-32.57Q149.18-42.02 149.18-51.75L149.18-51.75Q149.18-61.55 148.32-70.97Q147.45-80.39 145.31-87.98Q143.18-95.57 139.28-100.08Q135.38-104.60 129.31-104.60L129.31-104.60Q123.37-104.60 119.47-100.08Q115.58-95.57 113.40-87.98Q111.23-80.39 110.37-70.97Q109.50-61.55 109.50-51.75L109.50-51.75Q109.50-42.02 110.16-32.57Q110.81-23.12 112.88-15.53Q114.95-7.94 118.92-3.42Q122.89 1.10 129.31 1.10Z"/><path fill="#111317" d="M194.86-77.28L194.86-77.28Q190.30-77.28 186.54-79.52Q182.78-81.77 180.54-85.53Q178.30-89.29 178.30-93.84L178.30-93.84Q178.30-98.39 180.54-102.15Q182.78-105.92 186.54-108.16Q190.30-110.40 194.86-110.40L194.86-110.40Q199.41-110.40 203.17-108.16Q206.93-105.92 209.17-102.15Q211.42-98.39 211.42-93.84L211.42-93.84Q211.42-89.29 209.17-85.53Q206.93-81.77 203.17-79.52Q199.41-77.28 194.86-77.28ZM194.86-80.04L194.86-80.04Q200.79-80.04 204.72-84.01Q208.66-87.98 208.66-93.84L208.66-93.84Q208.66-99.77 204.72-103.71Q200.79-107.64 194.86-107.64L194.86-107.64Q188.99-107.64 185.02-103.71Q181.06-99.77 181.06-93.84L181.06-93.84Q181.06-87.98 185.02-84.01Q188.99-80.04 194.86-80.04Z"/><path fill="#111317" d="M-194.20 45.54L-196.05 45.54L-196.05 35.14L-192.48 35.14L-189.03 43.93L-188.71 43.93L-188.71 35.14L-186.84 35.14L-186.84 45.54L-190.44 45.54L-193.89 36.75L-194.20 36.75L-194.20 45.54ZM-174.39 45.73L-174.39 45.73Q-176.03 45.73-177.11 45.07Q-178.20 44.41-178.73 43.19Q-179.27 41.98-179.27 40.34L-179.27 40.34Q-179.27 38.69-178.73 37.48Q-178.20 36.27-177.11 35.61Q-176.03 34.95-174.39 34.95L-174.39 34.95Q-172.73 34.95-171.65 35.61Q-170.57 36.27-170.04 37.48Q-169.51 38.69-169.51 40.34L-169.51 40.34Q-169.51 41.98-170.04 43.19Q-170.57 44.41-171.65 45.07Q-172.73 45.73-174.39 45.73ZM-174.39 44.17L-174.39 44.17Q-172.97 44.17-172.30 43.17Q-171.63 42.17-171.63 40.34L-171.63 40.34Q-171.63 38.50-172.30 37.51Q-172.97 36.51-174.39 36.51L-174.39 36.51Q-175.80 36.51-176.47 37.51Q-177.15 38.50-177.15 40.34L-177.15 40.34Q-177.15 42.17-176.47 43.17Q-175.80 44.17-174.39 44.17ZM-159.89 45.54L-161.92 45.54L-161.92 35.14L-157.64 35.14Q-156.32 35.14-155.49 35.52Q-154.67 35.90-154.28 36.55Q-153.89 37.19-153.89 38.05L-153.89 38.05Q-153.89 39.03-154.43 39.75Q-154.96 40.46-156.00 40.75L-156.00 40.75L-153.61 45.46L-153.61 45.54L-155.79 45.54L-157.99 41.05L-159.89 41.05L-159.89 45.54ZM-159.89 36.70L-159.89 39.54L-157.91 39.54Q-156.96 39.54-156.47 39.21Q-155.97 38.89-155.97 38.11L-155.97 38.11Q-155.97 37.34-156.47 37.02Q-156.97 36.70-157.91 36.70L-157.91 36.70L-159.89 36.70ZM-142.04 45.54L-144.09 45.54L-144.09 36.77L-147.27 36.77L-147.27 35.14L-138.87 35.14L-138.87 36.77L-142.04 36.77L-142.04 45.54ZM-129.27 45.54L-131.32 45.54L-131.32 35.14L-129.27 35.14L-129.27 39.15L-124.63 39.15L-124.63 35.14L-122.57 35.14L-122.57 45.54L-124.63 45.54L-124.63 40.82L-129.27 40.82L-129.27 45.54Z"/><path fill="#111317" d="M93.41 45.54L86.34 45.54L86.34 35.14L93.33 35.14L93.33 36.77L88.37 36.77L88.37 39.23L92.21 39.23L92.21 40.75L88.37 40.75L88.37 43.90L93.41 43.90L93.41 45.54ZM102.21 45.54L100.26 45.54L100.26 45.46L103.46 35.14L106.69 35.14L109.90 45.46L109.90 45.54L107.78 45.54L105.17 36.73L104.85 36.73L102.21 45.54ZM107.25 42.83L102.77 42.83L103.22 41.26L106.80 41.26L107.25 42.83ZM120.81 45.74L120.81 45.74Q119.64 45.74 118.82 45.43Q118.01 45.11 117.49 44.59Q116.97 44.06 116.72 43.42Q116.46 42.78 116.42 42.13L116.42 42.13L118.34 42.13Q118.37 42.63 118.65 43.11Q118.93 43.58 119.48 43.88Q120.04 44.18 120.88 44.18L120.88 44.18Q121.77 44.18 122.23 43.80Q122.69 43.42 122.69 42.81L122.69 42.81Q122.69 42.19 122.28 41.83Q121.86 41.47 121.21 41.25L121.21 41.25L119.82 40.79Q119.09 40.54 118.42 40.19Q117.76 39.85 117.33 39.27Q116.90 38.70 116.90 37.79L116.90 37.79Q116.90 36.87 117.36 36.24Q117.82 35.61 118.64 35.27Q119.45 34.94 120.52 34.94L120.52 34.94Q121.85 34.94 122.65 35.40Q123.45 35.86 123.82 36.57Q124.20 37.27 124.28 38.07L124.28 38.07L122.36 38.07Q122.32 37.67 122.12 37.31Q121.93 36.94 121.52 36.71Q121.12 36.47 120.42 36.47L120.42 36.47Q119.66 36.47 119.27 36.80Q118.88 37.13 118.88 37.65L118.88 37.65Q118.88 38.21 119.30 38.54Q119.73 38.87 120.40 39.10L120.40 39.10L121.77 39.57Q122.52 39.81 123.18 40.16Q123.84 40.51 124.26 41.10Q124.68 41.69 124.68 42.65L124.68 42.65Q124.68 44.10 123.65 44.92Q122.62 45.74 120.81 45.74ZM136.02 45.54L133.97 45.54L133.97 36.77L130.80 36.77L130.80 35.14L139.20 35.14L139.20 36.77L136.02 36.77L136.02 45.54Z"/></g><rect x="343.1" y="1197.0" width="393.8" height="48.0" fill="#FFFFFF"/><path fill="#111317" opacity="0.620" d="M378.90 1230L375.10 1230L375.10 1210.50L387.90 1210.50L387.90 1213.55L378.90 1213.55L378.90 1218.28L385.80 1218.28L385.80 1221.13L378.90 1221.13L378.90 1230ZM406.98 1230.35L406.98 1230.35Q403.90 1230.35 401.86 1229.11Q399.82 1227.88 398.82 1225.60Q397.82 1223.33 397.82 1220.25L397.82 1220.25Q397.82 1217.15 398.82 1214.89Q399.82 1212.63 401.86 1211.39Q403.90 1210.15 406.98 1210.15L406.98 1210.15Q410.07 1210.15 412.10 1211.39Q414.13 1212.63 415.13 1214.89Q416.13 1217.15 416.13 1220.25L416.13 1220.25Q416.13 1223.33 415.13 1225.60Q414.13 1227.88 412.10 1229.11Q410.07 1230.35 406.98 1230.35ZM406.98 1227.42L406.98 1227.42Q409.63 1227.42 410.89 1225.55Q412.15 1223.67 412.15 1220.25L412.15 1220.25Q412.15 1216.80 410.89 1214.94Q409.63 1213.08 406.98 1213.08L406.98 1213.08Q404.32 1213.08 403.06 1214.94Q401.80 1216.80 401.80 1220.25L401.80 1220.25Q401.80 1223.67 403.06 1225.55Q404.32 1227.42 406.98 1227.42ZM439.60 1230L427.35 1230L427.35 1210.50L431.20 1210.50L431.20 1226.92L439.60 1226.92L439.60 1230ZM463 1230L450.75 1230L450.75 1210.50L454.60 1210.50L454.60 1226.92L463 1226.92L463 1230ZM482.13 1230.35L482.13 1230.35Q479.05 1230.35 477.01 1229.11Q474.97 1227.88 473.97 1225.60Q472.97 1223.33 472.97 1220.25L472.97 1220.25Q472.97 1217.15 473.97 1214.89Q474.97 1212.63 477.01 1211.39Q479.05 1210.15 482.13 1210.15L482.13 1210.15Q485.22 1210.15 487.25 1211.39Q489.27 1212.63 490.27 1214.89Q491.27 1217.15 491.27 1220.25L491.27 1220.25Q491.27 1223.33 490.27 1225.60Q489.27 1227.88 487.25 1229.11Q485.22 1230.35 482.13 1230.35ZM482.13 1227.42L482.13 1227.42Q484.77 1227.42 486.04 1225.55Q487.30 1223.67 487.30 1220.25L487.30 1220.25Q487.30 1216.80 486.04 1214.94Q484.77 1213.08 482.13 1213.08L482.13 1213.08Q479.47 1213.08 478.21 1214.94Q476.95 1216.80 476.95 1220.25L476.95 1220.25Q476.95 1223.67 478.21 1225.55Q479.47 1227.42 482.13 1227.42ZM510.93 1230L504.27 1230L501.23 1210.65L501.23 1210.50L505 1210.50L507.55 1227L508.15 1227L511.20 1210.50L517.60 1210.50L520.67 1227L521.27 1227L523.80 1210.50L527.33 1210.50L527.33 1210.65L524.30 1230L517.65 1230L514.58 1213.50L513.98 1213.50L510.93 1230ZM564 1233.30L564 1233.30Q560.55 1233.30 557.85 1231.96Q555.15 1230.63 553.61 1228.06Q552.08 1225.50 552.08 1221.85L552.08 1221.85Q552.08 1218.20 553.61 1215.58Q555.15 1212.95 557.88 1211.55Q560.60 1210.15 564.20 1210.15L564.20 1210.15Q567.77 1210.15 570.25 1211.49Q572.73 1212.83 574.01 1215.13Q575.30 1217.42 575.30 1220.35L575.30 1220.35Q575.30 1222.63 574.56 1224.33Q573.83 1226.03 572.58 1226.96Q571.33 1227.90 569.77 1227.90L569.77 1227.90Q568.40 1227.90 567.65 1227.25Q566.90 1226.60 566.60 1225.88L566.60 1225.88L566 1225.88Q565.40 1226.78 564.60 1227.34Q563.80 1227.90 562.50 1227.90L562.50 1227.90Q560.98 1227.90 559.94 1227.11Q558.90 1226.33 558.36 1224.91Q557.83 1223.50 557.83 1221.67L557.83 1221.67Q557.83 1218.92 559.02 1217.24Q560.23 1215.55 562.50 1215.55L562.50 1215.55Q563.70 1215.55 564.48 1216.04Q565.25 1216.53 565.63 1217.28L565.63 1217.28L566.23 1217.28L566.23 1215.75L568.88 1215.75L568.88 1223.95Q568.88 1224.78 569.14 1225.24Q569.40 1225.70 570.10 1225.70L570.10 1225.70Q570.95 1225.70 571.56 1225.03Q572.17 1224.35 572.51 1223.20Q572.85 1222.05 572.85 1220.60L572.85 1220.60Q572.85 1216.63 570.54 1214.47Q568.23 1212.33 564.20 1212.33L564.20 1212.33Q561.20 1212.33 559.06 1213.49Q556.92 1214.65 555.80 1216.76Q554.67 1218.88 554.67 1221.75L554.67 1221.75Q554.67 1224.60 555.79 1226.70Q556.90 1228.80 559 1229.96Q561.10 1231.13 564 1231.13L564 1231.13Q566 1231.13 567.80 1230.63Q569.60 1230.13 570.80 1229.47L570.80 1229.47L570.95 1229.47L570.95 1231.80Q569.80 1232.38 567.99 1232.84Q566.17 1233.30 564 1233.30ZM563.30 1225.72L563.30 1225.72Q564.45 1225.72 565.19 1224.65Q565.92 1223.58 565.92 1221.70L565.92 1221.70Q565.92 1219.85 565.19 1218.76Q564.45 1217.67 563.30 1217.67L563.30 1217.67Q562.23 1217.67 561.60 1218.69Q560.98 1219.70 560.98 1221.70L560.98 1221.70Q560.98 1223.70 561.60 1224.71Q562.23 1225.72 563.30 1225.72ZM591.77 1230L587.63 1230L587.63 1229.85L594.33 1217.28Q594.98 1216.05 595.46 1215.38Q595.95 1214.70 596.60 1214.15L596.60 1214.15L596.60 1213.55L586.20 1213.55L586.20 1210.50L600.05 1210.50L600.05 1213.72L591.77 1230ZM615.48 1230L612 1230L612 1210.50L618.70 1210.50L625.17 1226.97L625.77 1226.97L625.77 1210.50L629.27 1210.50L629.27 1230L622.52 1230L616.05 1213.53L615.48 1213.53L615.48 1230ZM648.17 1230.35L648.17 1230.35Q644.65 1230.35 642.67 1228.80Q640.70 1227.25 640.70 1224.78L640.70 1224.78Q640.70 1223 641.74 1221.80Q642.77 1220.60 644.55 1220.05L644.55 1220.05L644.55 1219.45Q643.13 1218.95 642.31 1217.89Q641.50 1216.83 641.50 1215.28L641.50 1215.28Q641.50 1213.80 642.26 1212.65Q643.02 1211.50 644.50 1210.83Q645.98 1210.15 648.13 1210.15L648.13 1210.15Q651.30 1210.15 653.07 1211.59Q654.85 1213.03 654.85 1215.33L654.85 1215.33Q654.85 1216.88 654.06 1217.91Q653.27 1218.95 651.77 1219.45L651.77 1219.45L651.77 1220.05Q653.63 1220.60 654.63 1221.81Q655.63 1223.03 655.63 1224.78L655.63 1224.78Q655.63 1226.38 654.76 1227.64Q653.90 1228.90 652.24 1229.63Q650.57 1230.35 648.17 1230.35ZM648.17 1227.55L648.17 1227.55Q649.95 1227.55 650.91 1226.65Q651.88 1225.75 651.88 1224.33L651.88 1224.33Q651.88 1222.90 650.91 1222Q649.95 1221.10 648.17 1221.10L648.17 1221.10Q646.40 1221.10 645.44 1222Q644.48 1222.90 644.48 1224.33L644.48 1224.33Q644.48 1225.75 645.44 1226.65Q646.40 1227.55 648.17 1227.55ZM648.17 1218.42L648.17 1218.42Q649.65 1218.42 650.48 1217.66Q651.30 1216.90 651.30 1215.67L651.30 1215.67Q651.30 1214.45 650.48 1213.69Q649.65 1212.92 648.17 1212.92L648.17 1212.92Q646.70 1212.92 645.86 1213.69Q645.02 1214.45 645.02 1215.67L645.02 1215.67Q645.02 1216.90 645.86 1217.66Q646.70 1218.42 648.17 1218.42ZM673.55 1230.35L673.55 1230.35Q669.75 1230.35 667.88 1227.67Q666 1225 666 1220.25L666 1220.25Q666 1215.50 667.88 1212.83Q669.75 1210.15 673.55 1210.15L673.55 1210.15Q677.40 1210.15 679.26 1212.83Q681.13 1215.50 681.13 1220.25L681.13 1220.25Q681.13 1225 679.26 1227.67Q677.40 1230.35 673.55 1230.35ZM673.55 1227.30L673.55 1227.30Q675.47 1227.30 676.38 1225.54Q677.27 1223.78 677.27 1220.25L677.27 1220.25Q677.27 1216.72 676.38 1214.95Q675.47 1213.17 673.55 1213.17L673.55 1213.17Q671.63 1213.17 670.74 1214.95Q669.85 1216.72 669.85 1220.25L669.85 1220.25Q669.85 1223.78 670.74 1225.54Q671.63 1227.30 673.55 1227.30ZM705.70 1230L692.45 1230L692.45 1210.50L705.55 1210.50L705.55 1213.55L696.25 1213.55L696.25 1218.17L703.45 1218.17L703.45 1221.03L696.25 1221.03L696.25 1226.92L705.70 1226.92L705.70 1230Z"/></svg>